<svg width="1200" height="630" viewBox="0 0 1200 630" xmlns="http://www.w3.org/2000/svg">
  <defs>
    <linearGradient id="bgGrad" x1="0%" y1="0%" x2="100%" y2="100%">
      <stop offset="0%" stop-color="#09090b" />
      <stop offset="100%" stop-color="#18181b" />
    </linearGradient>
  </defs>
  <rect width="1200" height="630" fill="url(#bgGrad)" />
  <path d="M0 100 H1200 M0 200 H1200 M0 300 H1200 M0 400 H1200 M0 500 H1200" stroke="#27272a" stroke-width="1" opacity="0.4" />
  <path d="M200 0 V630 M400 0 V630 M600 0 V630 M800 0 V630 M1000 0 V630" stroke="#27272a" stroke-width="1" opacity="0.4" />
  <rect x="30" y="30" width="1140" height="570" fill="none" stroke="#f59e0b" stroke-width="3" rx="16" opacity="0.8" />
  <rect x="80" y="90" width="460" height="36" fill="#f59e0b" opacity="0.15" rx="6" />
  <text x="95" y="114" font-family="'Segoe UI', Roboto, sans-serif" font-size="16" font-weight="800" fill="#f59e0b" letter-spacing="2">PORTFOLIO & ENGINEERING DISCOVERY</text>
  <text x="80" y="240" font-family="'Segoe UI', Roboto, sans-serif" font-size="54" font-weight="900" fill="#ffffff" letter-spacing="-1">ANUJ BANSAL</text>
  <text x="80" y="310" font-family="'Segoe UI', Roboto, sans-serif" font-size="24" font-weight="500" fill="#a1a1aa">Full Stack Next.js Developer & MERN Architect</text>
  <g transform="translate(80, 390)">
    <rect x="0" y="0" width="120" height="34" fill="#27272a" rx="6" />
    <text x="60" y="22" font-family="sans-serif" font-size="14" font-weight="700" fill="#f4f4f5" text-anchor="middle">Next.js 15</text>
    <rect x="135" y="0" width="120" height="34" fill="#27272a" rx="6" />
    <text x="195" y="22" font-family="sans-serif" font-size="14" font-weight="700" fill="#f4f4f5" text-anchor="middle">React 19</text>
    <rect x="270" y="0" width="130" height="34" fill="#27272a" rx="6" />
    <text x="335" y="22" font-family="sans-serif" font-size="14" font-weight="700" fill="#f4f4f5" text-anchor="middle">TypeScript</text>
    <rect x="415" y="0" width="140" height="34" fill="#27272a" rx="6" />
    <text x="485" y="22" font-family="sans-serif" font-size="14" font-weight="700" fill="#f4f4f5" text-anchor="middle">Payload CMS</text>
    <rect x="570" y="0" width="140" height="34" fill="#27272a" rx="6" />
    <text x="640" y="22" font-family="sans-serif" font-size="14" font-weight="700" fill="#f4f4f5" text-anchor="middle">Linux DevOps</text>
  </g>
  <line x1="80" y1="490" x2="1120" y2="490" stroke="#3f3f46" stroke-width="1" />
  <text x="80" y="540" font-family="'Segoe UI', Roboto, sans-serif" font-size="22" font-weight="800" fill="#f59e0b">anujbansaldev.in</text>
  <text x="1120" y="540" font-family="'Segoe UI', Roboto, sans-serif" font-size="18" font-weight="600" fill="#71717a" text-anchor="end">Anuj Bansal — Software Engineer</text>
</svg>